<svg width="32" height="34" viewBox="0 0 32 34" fill="none" xmlns="http://www.w3.org/2000/svg">
<g clip-path="url(#clip0_384_241)">
<path d="M31.4667 32.7166H28.95V3.55H29.8667C30.0636 3.55 30.238 3.47935 30.3626 3.34698C30.4864 3.21544 30.55 3.03481 30.55 2.83336V0.566645C30.55 0.36519 30.4864 0.184562 30.3626 0.0530176C30.238 -0.0793486 30.0636 -0.15 29.8667 -0.15H2.13331C1.93639 -0.15 1.76201 -0.0793487 1.63743 0.0530176C1.51362 0.184561 1.45 0.36519 1.45 0.566645V2.83329C1.45 3.03474 1.51362 3.21537 1.63743 3.34692C1.76201 3.47928 1.93639 3.54993 2.13331 3.54993H3.05V32.7166H0.533313C0.336393 32.7166 0.162006 32.7872 0.0374264 32.9196C-0.0863797 33.0511 -0.15 33.2318 -0.15 33.4332C-0.15 33.6347 -0.0863818 33.8153 0.0374091 33.9469C0.161978 34.0793 0.336365 34.15 0.533313 34.15H3.73331H18.6666H25.0666H28.2666H31.4666C31.6635 34.15 31.8379 34.0793 31.9625 33.947C32.0863 33.8154 32.1499 33.6348 32.1499 33.4334C32.1499 33.2319 32.0863 33.0513 31.9626 32.9197C31.838 32.7873 31.6636 32.7166 31.4667 32.7166ZM2.81669 1.28336H29.1834V2.11671H28.2667H3.73331H2.81669V1.28336ZM19.35 32.7166V23.95H21.1833V32.7166H19.35ZM22.55 32.7166V23.95H24.3833V32.7166H22.55ZM25.75 32.7166V23.2334C25.75 23.0319 25.6864 22.8513 25.5626 22.7197C25.438 22.5874 25.2636 22.5167 25.0667 22.5167H18.6667C18.4698 22.5167 18.2954 22.5874 18.1708 22.7197C18.047 22.8513 17.9834 23.0319 17.9834 23.2334V32.7167H4.41669V3.55H27.5834V32.7166H25.75Z" fill="#3296DC" stroke="#3296DC" stroke-width="0.3"/>
<path d="M6.55012 10.0503V6.95035H9.45012V10.0503H6.55012ZM13.7168 6.95035V10.0503H10.8168V6.95035H13.7168ZM14.4001 5.51699H10.1334H5.86681C5.66989 5.51699 5.4955 5.58764 5.37092 5.72001C5.24712 5.85155 5.1835 6.03218 5.1835 6.23364V10.767C5.1835 10.9684 5.24712 11.1491 5.37092 11.2806C5.4955 11.413 5.66989 11.4836 5.86681 11.4836H10.1335H14.4001C14.597 11.4836 14.7714 11.413 14.896 11.2806C15.0198 11.1491 15.0834 10.9684 15.0834 10.767V6.2337C15.0834 6.03225 15.0198 5.85161 14.896 5.72005C14.7714 5.58767 14.5971 5.51699 14.4001 5.51699Z" fill="#3296DC" stroke="#3296DC" stroke-width="0.3"/>
<path d="M26.1335 5.51699H21.8668H17.6002C17.4033 5.51699 17.2289 5.58764 17.1043 5.72001C16.9805 5.85155 16.9169 6.03218 16.9169 6.23364V10.767C16.9169 10.9684 16.9805 11.1491 17.1043 11.2806C17.2289 11.413 17.4033 11.4836 17.6002 11.4836H21.8669H26.1336C26.3305 11.4836 26.5049 11.413 26.6295 11.2806C26.7533 11.1491 26.8169 10.9684 26.8169 10.767V6.2337C26.8169 6.03224 26.7533 5.8516 26.6294 5.72004C26.5048 5.58767 26.3305 5.51699 26.1335 5.51699ZM18.2835 6.95035H21.1835V10.0503H18.2835V6.95035ZM25.4502 10.0503H22.5502V6.95035H25.4502V10.0503Z" fill="#3296DC" stroke="#3296DC" stroke-width="0.3"/>
<path d="M6.55012 17.983V14.883H9.45012V17.983H6.55012ZM13.7168 14.883V17.983H10.8168V14.883H13.7168ZM14.4001 13.4496H10.1334H5.86681C5.66989 13.4496 5.4955 13.5203 5.37092 13.6526C5.24712 13.7842 5.1835 13.9648 5.1835 14.1663V18.6996C5.1835 18.9011 5.24712 19.0817 5.37092 19.2132C5.4955 19.3456 5.66989 19.4163 5.86681 19.4163H10.1335H14.4001C14.597 19.4163 14.7714 19.3456 14.896 19.2132C15.0198 19.0817 15.0834 18.9011 15.0834 18.6996V14.1663C15.0834 13.9648 15.0198 13.7842 14.896 13.6526C14.7714 13.5203 14.597 13.4496 14.4001 13.4496Z" fill="#3296DC" stroke="#3296DC" stroke-width="0.3"/>
<path d="M6.55012 27.0503V23.9503H9.45012V27.0503H6.55012ZM13.7168 23.9503V27.0503H10.8168V23.9503H13.7168ZM14.4001 22.517H10.1334H5.86681C5.66989 22.517 5.4955 22.5876 5.37092 22.72C5.24712 22.8516 5.1835 23.0322 5.1835 23.2336V27.767C5.1835 27.9684 5.24712 28.1491 5.37092 28.2806C5.4955 28.413 5.66989 28.4836 5.86681 28.4836H10.1335H14.4001C14.597 28.4836 14.7714 28.413 14.896 28.2806C15.0198 28.1491 15.0834 27.9684 15.0834 27.767V23.2336C15.0834 23.0322 15.0198 22.8516 14.896 22.72C14.7714 22.5877 14.5971 22.517 14.4001 22.517Z" fill="#3296DC" stroke="#3296DC" stroke-width="0.3"/>
<path d="M26.1335 13.4496H21.8668H17.6002C17.4033 13.4496 17.2289 13.5203 17.1043 13.6526C16.9805 13.7842 16.9169 13.9648 16.9169 14.1663V18.6996C16.9169 18.9011 16.9805 19.0817 17.1043 19.2132C17.2289 19.3456 17.4033 19.4163 17.6002 19.4163H21.8669H26.1336C26.3305 19.4163 26.5049 19.3456 26.6295 19.2132C26.7533 19.0817 26.8169 18.9011 26.8169 18.6996V14.1663C26.8169 13.9648 26.7533 13.7842 26.6294 13.6526C26.5048 13.5203 26.3304 13.4496 26.1335 13.4496ZM18.2835 14.883H21.1835V17.983H18.2835V14.883ZM25.4502 17.983H22.5502V14.883H25.4502V17.983Z" fill="#3296DC" stroke="#3296DC" stroke-width="0.3"/>
</g>
<defs>
<clipPath id="clip0_384_241">
<rect width="32" height="34" fill="white"/>
</clipPath>
</defs>
</svg>
