<svg width="40" height="40" viewBox="0 0 40 40" fill="none" xmlns="http://www.w3.org/2000/svg">
<path d="M17.9165 7.73359L10.5332 4.08359C6.54987 2.13359 3.2832 4.11692 3.2832 8.48359V33.2169C3.2832 35.1169 4.86654 36.6669 6.79987 36.6669H19.1665C20.0832 36.6669 20.8332 35.9169 20.8332 35.0003V12.3503C20.8332 10.6003 19.5165 8.51692 17.9165 7.73359ZM14.9499 22.9169H9.16654C8.4832 22.9169 7.91654 22.3503 7.91654 21.6669C7.91654 20.9836 8.4832 20.4169 9.16654 20.4169H14.9499C15.6332 20.4169 16.1999 20.9836 16.1999 21.6669C16.1999 22.3503 15.6499 22.9169 14.9499 22.9169ZM14.9499 16.2503H9.16654C8.4832 16.2503 7.91654 15.6836 7.91654 15.0003C7.91654 14.3169 8.4832 13.7503 9.16654 13.7503H14.9499C15.6332 13.7503 16.1999 14.3169 16.1999 15.0003C16.1999 15.6836 15.6499 16.2503 14.9499 16.2503Z" fill="#258FDA"/>
<path d="M36.6668 30.0664V32.4997C36.6668 34.7997 34.8002 36.6664 32.5002 36.6664H24.9502C24.0502 36.6664 23.3335 35.9497 23.3335 35.0497V31.4497C25.1168 31.6664 27.0002 31.1497 28.3502 30.0664C29.4835 30.9831 30.9335 31.5331 32.5168 31.5331C34.0668 31.5331 35.5168 30.9831 36.6668 30.0664Z" fill="#258FDA"/>
<path d="M36.6668 25.0835V25.1002C36.5335 27.2835 34.7502 29.0335 32.5168 29.0335C30.2002 29.0335 28.3502 27.1502 28.3502 24.8669C28.3502 27.4169 26.0002 29.4669 23.3335 28.9502V20.0002C23.3335 18.9335 24.3168 18.1335 25.3668 18.3669L28.3502 19.0335L29.1502 19.2169L32.5502 19.9835C33.3668 20.1502 34.1168 20.4335 34.7668 20.8502C34.7668 20.8669 34.7835 20.8669 34.7835 20.8669C34.9502 20.9835 35.1168 21.1169 35.2668 21.2669C36.0335 22.0335 36.5335 23.1502 36.6502 24.7835C36.6502 24.8835 36.6668 24.9835 36.6668 25.0835Z" fill="#258FDA"/>
</svg>
