<svg width="40" height="40" viewBox="0 0 40 40" fill="none" xmlns="http://www.w3.org/2000/svg">
<path d="M36.25 21.8754H6.25V7.81291C6.24855 7.28332 6.35216 6.75871 6.55483 6.26944C6.75749 5.78017 7.0552 5.33596 7.4307 4.96252L7.46195 4.93127C8.05044 4.34364 8.80599 3.95203 9.6254 3.80994C10.4448 3.66784 11.2881 3.78219 12.0401 4.13736C11.3299 5.31813 11.0347 6.70239 11.2014 8.07015C11.3682 9.43792 11.9872 10.7107 12.9602 11.6863L13.8158 12.5419L12.241 14.1167L14.0087 15.8844L15.5834 14.3096L24.3091 5.58408L25.8839 4.00931L24.1162 2.24158L22.5413 3.81634L21.6858 2.9608C20.6615 1.93934 19.3112 1.30967 17.8703 1.18153C16.4294 1.05338 14.9892 1.43488 13.8007 2.25955C12.5474 1.46807 11.0622 1.12639 9.5891 1.29062C8.11596 1.45486 6.74248 2.11524 5.6943 3.1633L5.66305 3.19455C5.05464 3.79962 4.57229 4.51936 4.24392 5.3121C3.91554 6.10485 3.74766 6.95485 3.75 7.81291V21.8754H1.25V24.3754H3.75V26.7738C3.74995 26.9754 3.78245 27.1756 3.84625 27.3667L6.17188 34.3433C6.29598 34.7168 6.53463 35.0417 6.85391 35.2719C7.17319 35.502 7.55688 35.6257 7.95047 35.6254H8.95828L8.04688 38.7504H10.651L11.5625 35.6254H27.8203L28.7578 38.7504H31.3672L30.4297 35.6254H32.0492C32.4429 35.6258 32.8266 35.5021 33.146 35.272C33.4653 35.0418 33.704 34.7169 33.8281 34.3433L36.1536 27.3667C36.2174 27.1756 36.25 26.9754 36.25 26.7738V24.3754H38.75V21.8754H36.25ZM14.7281 4.72853C15.4169 4.04128 16.3501 3.65532 17.3231 3.65532C18.2961 3.65532 19.2293 4.04128 19.918 4.72853L20.7734 5.58408L15.5837 10.7738L14.7281 9.91845C14.0409 9.22969 13.655 8.29645 13.655 7.32349C13.655 6.35053 14.0409 5.4173 14.7281 4.72853V4.72853ZM33.75 26.6723L31.5991 33.1254H8.40094L6.25 26.6723V24.3754H33.75V26.6723Z" fill="#258FDA"/>
</svg>
