<svg width="18" height="18" viewBox="0 0 18 18" fill="none" xmlns="http://www.w3.org/2000/svg">
<g clip-path="url(#clip0_16_4788)">
<path d="M6.28558 16.896V14.144C6.28558 13.4416 6.88943 12.8721 7.63431 12.8721H10.3572C10.7149 12.8721 11.058 13.0061 11.3109 13.2446C11.5638 13.4832 11.7059 13.8067 11.7059 14.144V16.896C11.7037 17.1881 11.8251 17.4689 12.0433 17.6762C12.2615 17.8834 12.5584 18 12.868 18H14.7257C15.5933 18.0021 16.4262 17.6785 17.0405 17.1007C17.6548 16.5229 18 15.7383 18 14.92V7.08017C18 6.41921 17.6893 5.79225 17.1517 5.3682L10.8322 0.608282C9.73294 -0.226294 8.1579 -0.199348 7.09142 0.672281L0.916117 5.3682C0.353123 5.77975 0.0166285 6.40857 0 7.08017V14.912C0 16.6175 1.46594 18 3.27427 18H5.08954C5.73274 18 6.25547 17.5106 6.26013 16.904L6.28558 16.896Z" fill="#258FDA"/>
</g>
<defs>
<clipPath id="clip0_16_4788">
<rect width="18" height="18" fill="white"/>
</clipPath>
</defs>
</svg>
