<svg width="36" height="34" viewBox="0 0 36 34" fill="none" xmlns="http://www.w3.org/2000/svg">
<path d="M35.2808 20.027L33.6623 19.4783V1.9021C33.6623 1.31141 33.1912 0.832168 32.6104 0.832168C32.0296 0.832168 31.5584 1.31141 31.5584 1.9021V2.37762H28.8197C28.3628 0.960708 27.0636 0.00185749 25.5974 0H10.4026C8.93644 0.00185749 7.63722 0.960708 7.18028 2.37762H4.44156V1.9021C4.44156 1.31141 3.97037 0.832168 3.38961 0.832168C2.80885 0.832168 2.33766 1.31141 2.33766 1.9021V19.4783L0.719196 20.027C0.290016 20.1726 0 20.5813 0 21.042V32.9301C0 33.5208 0.471185 34 1.05195 34H34.9481C35.5288 34 36 33.5208 36 32.9301V21.042C36 20.5813 35.71 20.1726 35.2808 20.027ZM4.44156 4.51748H8.06493C8.6457 4.51748 9.11688 4.03824 9.11688 3.44755C9.11761 2.72609 9.69326 2.1406 10.4026 2.13986H25.5974C26.3067 2.1406 26.8824 2.72609 26.8831 3.44755C26.8831 4.03824 27.3543 4.51748 27.9351 4.51748H31.5584V18.765L28.987 17.8931V14.1469C28.987 13.5562 28.5158 13.0769 27.9351 13.0769H23.7273V9.74825C23.7258 8.50149 22.7323 7.491 21.5065 7.48951H14.4935C13.2677 7.491 12.2742 8.50149 12.2727 9.74825V13.0769H8.06493C7.48417 13.0769 7.01299 13.5562 7.01299 14.1469V17.8931L4.44156 18.765V4.51748ZM21.6234 13.0769H14.3766V9.74825C14.3766 9.68287 14.4292 9.62937 14.4935 9.62937H21.5065C21.5708 9.62937 21.6234 9.68287 21.6234 9.74825V13.0769ZM26.8831 15.2168V17.5944H9.11688V15.2168H26.8831ZM2.1039 21.8132L8.23588 19.7343H27.7641L33.8961 21.8132V28.2937H2.1039V21.8132ZM2.1039 31.8601V30.4336H33.8961V31.8601H2.1039Z" fill="#258FDA"/>
</svg>
