<svg width="13" height="18" viewBox="0 0 13 18" fill="none" xmlns="http://www.w3.org/2000/svg">
<path d="M10.9014 16.1561H2.08448V1.84422H10.9014V16.1561ZM11.4915 0.9H1.49444C1.33928 0.9 1.19505 0.947631 1.08745 1.02934C0.979768 1.1111 0.904395 1.23134 0.904395 1.37209V16.6282C0.904395 16.7689 0.979768 16.8892 1.08745 16.9709C1.19505 17.0526 1.33928 17.1003 1.49444 17.1003H11.4915C11.6467 17.1003 11.7909 17.0526 11.8985 16.9709C12.0062 16.8892 12.0816 16.7689 12.0816 16.6282V1.37209C12.0816 1.23133 12.0062 1.11109 11.8985 1.02934C11.7909 0.947633 11.6467 0.9 11.4915 0.9Z" fill="#258FDA" stroke="#258FDA" stroke-width="0.2"/>
<path d="M9 8C8.44858 8 8 8.44861 8 9C8 9.55139 8.44861 10 9 10C9.55142 10 10 9.55139 10 9C10 8.44861 9.55139 8 9 8ZM9 9.39395C8.78278 9.39395 8.60606 9.21722 8.60606 9C8.60606 8.78278 8.78278 8.60606 9 8.60606C9.21722 8.60606 9.39394 8.78278 9.39394 9C9.39394 9.21722 9.21719 9.39395 9 9.39395Z" fill="#258FDA" stroke="#258FDA" stroke-width="0.2"/>
<path d="M6.00267 14.5508H5.61065C5.33999 14.5508 5.12061 14.7702 5.12061 15.0408C5.12061 15.3115 5.33999 15.5309 5.61065 15.5309H6.00267C6.27333 15.5309 6.49271 15.3115 6.49271 15.0408C6.49271 14.7702 6.27333 14.5508 6.00267 14.5508Z" fill="#258FDA"/>
<mask id="path-4-inside-1_388_343" fill="white">
<path d="M9.87415 14.5508H7.61993C7.34932 14.5508 7.12988 14.7702 7.12988 15.0408C7.12988 15.3115 7.34932 15.5309 7.61993 15.5309H9.87415C10.1448 15.5309 10.3642 15.3115 10.3642 15.0408C10.3642 14.7702 10.1448 14.5508 9.87415 14.5508Z"/>
</mask>
<path d="M9.87415 14.5508H7.61993C7.34932 14.5508 7.12988 14.7702 7.12988 15.0408C7.12988 15.3115 7.34932 15.5309 7.61993 15.5309H9.87415C10.1448 15.5309 10.3642 15.3115 10.3642 15.0408C10.3642 14.7702 10.1448 14.5508 9.87415 14.5508Z" fill="#258FDA"/>
<path d="M9.87415 13.5508H7.61993V15.5508H9.87415V13.5508ZM7.61993 13.5508C6.7971 13.5508 6.12988 14.2178 6.12988 15.0408H8.12988C8.12988 15.3225 7.90154 15.5508 7.61993 15.5508V13.5508ZM6.12988 15.0408C6.12988 15.8638 6.7971 16.5309 7.61993 16.5309V14.5309C7.90154 14.5309 8.12988 14.7591 8.12988 15.0408H6.12988ZM7.61993 16.5309H9.87415V14.5309H7.61993V16.5309ZM9.87415 16.5309C10.6971 16.5309 11.3642 15.8638 11.3642 15.0408H9.36419C9.36419 14.7592 9.59252 14.5309 9.87415 14.5309V16.5309ZM11.3642 15.0408C11.3642 14.2178 10.697 13.5508 9.87415 13.5508V15.5508C9.59253 15.5508 9.36419 15.3225 9.36419 15.0408H11.3642Z" fill="#258FDA" mask="url(#path-4-inside-1_388_343)"/>
</svg>
