<svg width="40" height="40" viewBox="0 0 40 40" fill="none" xmlns="http://www.w3.org/2000/svg">
<path fill-rule="evenodd" clip-rule="evenodd" d="M11.7217 13.3729C11.7217 12.4524 12.4679 11.7063 13.3884 11.7063H26.6608C27.5813 11.7063 28.3274 12.4524 28.3274 13.3729V22.1214L36.6669 18.3326L21.1151 4.33605C20.4813 3.76559 19.519 3.76559 18.8853 4.33605L3.3335 18.3326L11.7217 22.1214V13.3729ZM15.0315 25.3886L3.3335 19.9993V34.9993C3.3335 35.9198 4.0797 36.6659 5.00017 36.6659H35.0001C35.9206 36.6659 36.6669 35.9198 36.6669 34.9993V19.9993L24.939 25.3663L31.3311 30.1559L31.4435 30.257C31.7138 30.5481 31.7461 31 31.5 31.3296C31.223 31.7005 30.6983 31.7763 30.328 31.4988L23.6693 26.5093L23.5569 26.4081C23.4693 26.3138 23.4066 26.2026 23.3704 26.0841L19.9441 27.652L16.6181 26.1196C16.5809 26.2249 16.5223 26.3234 16.4435 26.4081L16.3311 26.5093L9.67227 31.4988C9.30203 31.7763 8.77736 31.7005 8.50038 31.3296C8.25418 31 8.28656 30.5481 8.55682 30.257L8.66924 30.1559L15.0315 25.3886ZM20.0828 24.5543C21.0351 24.5543 21.8596 24.3909 22.5563 24.064C22.8954 23.905 23.2075 23.7398 23.4379 23.5089C24.1901 22.755 23.1679 22.2129 22.6566 22.755C22.4139 23.0124 22.1056 23.2471 21.6649 23.4009C21.2241 23.5546 20.6968 23.6315 20.0828 23.6315C19.2564 23.6315 18.5401 23.4681 17.934 23.1414C17.328 22.8145 16.8636 22.3531 16.5409 21.7573C16.2181 21.1614 16.0569 20.4635 16.0569 19.6639C16.0569 18.7949 16.232 18.0453 16.5823 17.4148C16.9325 16.7841 17.4126 16.3036 18.0226 15.973C18.6326 15.6423 19.3233 15.477 20.0946 15.477C20.921 15.477 21.6235 15.6231 22.202 15.9153C22.7805 16.2075 23.2135 16.6054 23.5008 17.109C23.788 17.6128 23.9316 18.1798 23.9316 18.8104C23.9316 19.364 23.8688 19.8176 23.7428 20.1714C23.6169 20.525 23.4634 20.7808 23.2824 20.9384C23.1013 21.096 22.9203 21.1748 22.7393 21.1748C22.511 21.1748 22.3456 21.1171 22.2434 21.0018C22.141 20.8865 22.0899 20.7096 22.0899 20.4713C22.0899 20.302 22.1056 20.1368 22.1371 19.9753L22.5271 17.8274L22.5421 17.7454C22.6018 17.417 22.3494 17.1149 22.0156 17.1149C21.7576 17.1149 21.5364 17.299 21.4896 17.5528L21.4405 17.8184H21.4169C21.3225 17.5646 21.1474 17.3648 20.8915 17.2186C20.6358 17.0725 20.3386 16.9995 20.0001 16.9995C19.52 16.9995 19.0891 17.1321 18.7074 17.3974C18.3256 17.6626 18.0305 18.0221 17.8219 18.4759C17.6133 18.9295 17.509 19.4255 17.509 19.9638C17.509 20.5943 17.6724 21.096 17.999 21.4689C18.3256 21.8419 18.7684 22.0283 19.3273 22.0283C20.0435 22.0283 20.622 21.6976 21.0628 21.0364H21.0864C21.1336 21.344 21.2831 21.5861 21.535 21.763C21.7869 21.9399 22.1214 22.0283 22.5385 22.0283C22.9871 22.0283 23.3945 21.9091 23.7605 21.6708C24.1265 21.4324 24.4196 21.071 24.64 20.5865C24.8605 20.1021 24.9706 19.51 24.9706 18.8104C24.9706 18.0338 24.7818 17.3224 24.4039 16.6765C24.0261 16.0306 23.4693 15.5154 22.7334 15.131C21.9974 14.7465 21.1179 14.5543 20.0946 14.5543C19.1186 14.5543 18.243 14.76 17.4676 15.1714C16.6924 15.5828 16.0824 16.1729 15.6378 16.9418C15.193 17.7108 14.9706 18.6181 14.9706 19.6639C14.9706 20.625 15.1793 21.4746 15.5964 22.2129C16.0135 22.951 16.6078 23.5258 17.3791 23.9373C18.1505 24.3486 19.0518 24.5543 20.0828 24.5543ZM19.5634 21.1748C19.28 21.1748 19.0498 21.0653 18.8726 20.8461C18.6955 20.6269 18.607 20.329 18.607 19.9521C18.607 19.6061 18.668 19.2736 18.79 18.9545C18.912 18.6354 19.093 18.374 19.3331 18.1701C19.5731 17.9664 19.8545 17.8645 20.1773 17.8645C20.5 17.8645 20.7519 17.9626 20.9329 18.1586C21.1139 18.3548 21.2044 18.6411 21.2044 19.0179C21.2044 19.3794 21.1395 19.7254 21.0096 20.056C20.8798 20.3866 20.6909 20.6558 20.4429 20.8634C20.195 21.071 19.9018 21.1748 19.5634 21.1748Z" fill="#007BFF"/>
</svg>
