<svg width="16" height="18" viewBox="0 0 16 18" fill="none" xmlns="http://www.w3.org/2000/svg">
<path d="M0 6C0 3.17157 0 1.75736 0.87868 0.87868C1.75736 0 3.17157 0 6 0H10C12.8284 0 14.2426 0 15.1213 0.87868C16 1.75736 16 3.17157 16 6V12.8276C16 15.5109 16 16.8525 15.1557 17.2629C14.3114 17.6733 13.2565 16.8444 11.1465 15.1866L10.4713 14.656C9.28491 13.7239 8.69173 13.2578 8 13.2578C7.30827 13.2578 6.71509 13.7239 5.52871 14.656L4.85346 15.1866C2.74355 16.8444 1.68859 17.6733 0.844294 17.2629C0 16.8525 0 15.5109 0 12.8276V6Z" fill="#D9D9D9"/>
<rect x="4" y="2" width="8" height="2" rx="1" fill="white"/>
</svg>
