<svg width="33" height="33" viewBox="0 0 33 33" fill="none" xmlns="http://www.w3.org/2000/svg">
<circle cx="16.5" cy="16.5" r="16" fill="white" stroke="#258FDA"/>
<path d="M10 14.0096C10 11.648 10 10.4673 10.7139 9.73363C11.4279 9 12.5769 9 14.875 9H18.125C20.4231 9 21.5721 9 22.2861 9.73363C23 10.4673 23 11.648 23 14.0096V19.7101C23 21.9505 23 23.0707 22.314 23.4133C21.628 23.7559 20.7709 23.0638 19.0566 21.6797L18.5079 21.2367C17.544 20.4584 17.062 20.0693 16.5 20.0693C15.938 20.0693 15.456 20.4584 14.4921 21.2367L13.9434 21.6797C12.2291 23.0638 11.372 23.7559 10.686 23.4133C10 23.0707 10 21.9505 10 19.7101V14.0096Z" fill="#258FDA" stroke="#258FDA" stroke-width="2"/>
<path d="M13 13.0198C13 12.4566 13.4566 12 14.0198 12H18.1802C18.7434 12 19.2 12.4566 19.2 13.0198V13.0198C19.2 13.583 18.7434 14.0396 18.1802 14.0396H14.0198C13.4566 14.0396 13 13.583 13 13.0198V13.0198Z" fill="white"/>
</svg>
