<svg width="18" height="19" viewBox="0 0 18 19" fill="none" xmlns="http://www.w3.org/2000/svg">
<path d="M1 6.5324C1 3.9244 1 2.6204 1.87868 1.8102C2.75736 1 4.17157 1 7 1H11C13.8284 1 15.2426 1 16.1213 1.8102C17 2.6204 17 3.9244 17 6.5324V12.8279C17 15.3021 17 16.5392 16.1557 16.9175C15.3114 17.2959 14.2565 16.5316 12.1465 15.003L11.4713 14.5138C10.2849 13.6543 9.69173 13.2246 9 13.2246C8.30827 13.2246 7.71509 13.6543 6.52871 14.5138L5.85346 15.003C3.74355 16.5316 2.68859 17.2959 1.84429 16.9175C1 16.5392 1 15.3021 1 12.8279V6.5324Z" stroke="#258FDA" stroke-width="2"/>
<path d="M5 5.94629C5 5.394 5.44772 4.94629 6 4.94629H12C12.5523 4.94629 13 5.394 13 5.94629C13 6.49857 12.5523 6.94629 12 6.94629H6C5.44772 6.94629 5 6.49857 5 5.94629Z" fill="#258FDA"/>
</svg>
