<svg width="16" height="17" viewBox="0 0 16 17" fill="none" xmlns="http://www.w3.org/2000/svg">
<path d="M0 5.5324C0 2.9244 0 1.6204 0.87868 0.810201C1.75736 0 3.17157 0 6 0H10C12.8284 0 14.2426 0 15.1213 0.810201C16 1.6204 16 2.9244 16 5.5324V11.8279C16 14.3021 16 15.5392 15.1557 15.9175C14.3114 16.2959 13.2565 15.5316 11.1465 14.003L10.4713 13.5138C9.28491 12.6543 8.69173 12.2246 8 12.2246C7.30827 12.2246 6.71509 12.6543 5.52871 13.5138L4.85346 14.003C2.74355 15.5316 1.68859 16.2959 0.844294 15.9175C0 15.5392 0 14.3021 0 11.8279V5.5324Z" fill="#258FDA"/>
<path d="M4 4.94629C4 4.394 4.44772 3.94629 5 3.94629H11C11.5523 3.94629 12 4.394 12 4.94629C12 5.49857 11.5523 5.94629 11 5.94629H5C4.44772 5.94629 4 5.49857 4 4.94629Z" fill="white"/>
</svg>
