<svg width="33" height="33" viewBox="0 0 33 33" fill="none" xmlns="http://www.w3.org/2000/svg">
<circle cx="16.5" cy="16.5" r="16" fill="white" stroke="#258FDA"/>
<path d="M10 14.0096C10 11.648 10 10.4673 10.7139 9.73363C11.4279 9 12.5769 9 14.875 9H18.125C20.4231 9 21.5721 9 22.2861 9.73363C23 10.4673 23 11.648 23 14.0096V19.7101C23 21.9505 23 23.0707 22.314 23.4133C21.628 23.7559 20.7709 23.0638 19.0566 21.6797L18.5079 21.2367C17.544 20.4584 17.062 20.0693 16.5 20.0693C15.938 20.0693 15.456 20.4584 14.4921 21.2367L13.9434 21.6797C12.2291 23.0638 11.372 23.7559 10.686 23.4133C10 23.0707 10 21.9505 10 19.7101V14.0096Z" stroke="#258FDA" stroke-width="2"/>
<path d="M13.2495 13.4787C13.2495 12.9786 13.6549 12.5732 14.155 12.5732H18.844C19.3441 12.5732 19.7495 12.9786 19.7495 13.4787V13.4787C19.7495 13.9788 19.3441 14.3842 18.844 14.3842H14.155C13.6549 14.3842 13.2495 13.9788 13.2495 13.4787V13.4787Z" fill="#258FDA"/>
</svg>
