<svg width="30" height="32" viewBox="0 0 30 32" fill="none" xmlns="http://www.w3.org/2000/svg">
<path d="M25.278 7.19372C24.8496 6.76513 24.1549 6.76527 23.7266 7.19372C23.2982 7.62216 23.2982 8.31682 23.7266 8.74526C26.0577 11.0763 27.3414 14.1753 27.3414 17.4716C27.3414 20.768 26.0577 23.8671 23.7266 26.198C18.9147 31.0099 11.0855 31.0099 6.27374 26.198C3.94269 23.8671 2.65913 20.7681 2.65913 17.4716C2.65913 14.1752 3.94284 11.0762 6.27374 8.74526C8.07732 6.94168 10.3417 5.76855 12.8004 5.32841L11.133 7.77282C10.7916 8.27338 10.9206 8.9559 11.4212 9.29731C11.6105 9.42632 11.8255 9.4882 12.0383 9.4882C12.3888 9.4882 12.7333 9.32056 12.9457 9.00929L15.9173 4.65247C15.9174 4.65218 15.9177 4.65188 15.9178 4.65174C16.2593 4.15118 16.1302 3.46866 15.6297 3.12725L11.3245 0.190913C10.8235 -0.15064 10.1413 -0.021479 9.80001 0.479076C9.4586 0.979632 9.58762 1.66215 10.0882 2.00356L11.9307 3.26022C9.21959 3.8402 6.72895 5.18696 4.7222 7.19372C1.9769 9.93902 0.464844 13.589 0.464844 17.4716C0.464844 21.3542 1.97675 25.0042 4.7222 27.7495C7.55614 30.5835 11.2775 32.0005 15.0001 32C18.7218 31.9997 22.4447 30.5828 25.278 27.7495C28.0235 25.0042 29.5355 21.3541 29.5355 17.4716C29.5355 13.5892 28.0235 9.93916 25.278 7.19372Z" fill="#258FDA"/>
<path d="M13.8975 15.4759C13.8975 13.4914 12.2831 11.877 10.2986 11.877C8.31421 11.877 6.69976 13.4915 6.69976 15.4759C6.69976 16.0818 7.19096 16.573 7.79683 16.573C8.4027 16.573 8.8939 16.0818 8.8939 15.4759C8.8939 14.7012 9.52405 14.0711 10.2986 14.0711C11.0731 14.0711 11.7034 14.7014 11.7034 15.4759C11.7034 15.851 11.5573 16.2038 11.2919 16.469C11.2789 16.482 11.2662 16.4953 11.2539 16.5091L6.98295 21.2335C6.69216 21.5551 6.61814 22.018 6.79411 22.4144C6.97008 22.8108 7.36312 23.0662 7.79668 23.0662H12.8003C13.4062 23.0662 13.8974 22.575 13.8974 21.9691C13.8974 21.3632 13.4062 20.872 12.8003 20.872H10.2674L12.8646 17.999C13.531 17.3219 13.8975 16.4272 13.8975 15.4759Z" fill="#258FDA"/>
<path d="M15.0328 20.1594C15.2193 20.5294 15.5983 20.7628 16.0126 20.7628H19.8683V21.9693C19.8683 22.5752 20.3595 23.0664 20.9653 23.0664C21.5712 23.0664 22.0624 22.5752 22.0624 21.9693V20.7628H22.2036C22.8094 20.7628 23.3006 20.2716 23.3006 19.6658C23.3006 19.0599 22.8094 18.5687 22.2036 18.5687H22.0624V12.9741C22.0624 12.5006 21.7586 12.0805 21.3089 11.9322C20.8594 11.784 20.3652 11.9408 20.0836 12.3214L15.1308 19.0131C14.8844 19.346 14.8465 19.7895 15.0328 20.1594ZM19.8683 16.3003V18.5686H18.1893L19.8683 16.3003Z" fill="#258FDA"/>
</svg>
