<svg width="41" height="41" viewBox="0 0 41 41" fill="none" xmlns="http://www.w3.org/2000/svg">
<g clip-path="url(#clip0_384_317)">
<path d="M2.77988 19.1602H14.5934H26.407H38.2206C38.6317 19.1602 38.9655 18.8272 38.9655 18.4153V5.21188C38.9655 4.79995 38.6317 4.46697 38.2206 4.46697H27.1519V2.43222C27.1519 2.02029 26.8182 1.6873 26.407 1.6873H14.5934C14.1823 1.6873 13.8485 2.02029 13.8485 2.43222V4.46697H2.77988C2.3687 4.46697 2.03496 4.79995 2.03496 5.21188V15.6356V18.4153C2.03496 18.8272 2.3687 19.1602 2.77988 19.1602ZM3.52479 16.3805H13.8485V17.6704H3.52479V16.3805ZM37.4756 5.9568V17.6704H27.1519V5.9568H37.4756ZM15.3384 3.17714H25.6621V5.21188V17.6704H15.3384V15.6356V5.21188V3.17714ZM3.52479 5.9568H13.8485V14.8907H3.52479V5.9568Z" fill="#258FDA" stroke="#258FDA" stroke-width="0.1"/>
<path d="M11.8135 28.0945H11.7635V28.1445V30.2293V30.2793H11.8135H13.2033H13.2533V30.2293V28.1445V28.0945H13.2033H11.8135Z" fill="#258FDA" stroke="#258FDA" stroke-width="0.1"/>
<path d="M11.8135 10.7215H11.7635V10.7715V12.8562V12.9062H11.8135H13.2033H13.2533V12.8562V10.7715V10.7215H13.2033H11.8135Z" fill="#258FDA" stroke="#258FDA" stroke-width="0.1"/>
<path d="M23.627 28.0945H23.577V28.1445V30.2293V30.2793H23.627H25.0168H25.0668V30.2293V28.1445V28.0945H25.0168H23.627Z" fill="#258FDA" stroke="#258FDA" stroke-width="0.1"/>
<path d="M23.627 10.7215H23.577V10.7715V12.8562V12.9062H23.627H25.0168H25.0668V12.8562V10.7715V10.7215H25.0168H23.627Z" fill="#258FDA" stroke="#258FDA" stroke-width="0.1"/>
<path d="M35.4409 28.0945H35.3909V28.1445V30.2293V30.2793H35.4409H36.8307H36.8807V30.2293V28.1445V28.0945H36.8307H35.4409Z" fill="#258FDA" stroke="#258FDA" stroke-width="0.1"/>
<path d="M35.4409 10.7215H35.3909V10.7715V12.8562V12.9062H35.4409H36.8307H36.8807V12.8562V10.7715V10.7215H36.8307H35.4409Z" fill="#258FDA" stroke="#258FDA" stroke-width="0.1"/>
<path d="M41 26.8041H41.05V26.7541V25.3643V25.3143H41H38.2203H26.4068H14.5932H2.77966H0H-0.05V25.3643V26.7541V26.8041H0H2.03475V35.7396C1.64685 35.7653 1.33983 36.0878 1.33983 36.4829V38.5676C1.33983 38.9796 1.67357 39.3126 2.08475 39.3126H38.9153C39.3264 39.3126 39.6602 38.9796 39.6602 38.5676V36.4829C39.6602 36.0878 39.3531 35.7653 38.9653 35.7396V26.8041H41ZM25.6619 35.738H15.3381V26.8041H25.6619V35.738ZM3.52458 26.8041H13.8483V35.738H3.52458V26.8041ZM38.1703 37.8227H2.82966V37.2278H14.5932H26.4068H38.1703V37.8227ZM37.4754 35.738H27.1517V26.8041H37.4754V35.738Z" fill="#258FDA" stroke="#258FDA" stroke-width="0.1"/>
</g>
<defs>
<clipPath id="clip0_384_317">
<rect width="41" height="41" fill="white"/>
</clipPath>
</defs>
</svg>
