<svg width="12" height="17" viewBox="0 0 12 17" fill="none" xmlns="http://www.w3.org/2000/svg">
<path fill-rule="evenodd" clip-rule="evenodd" d="M6.50641 16.8029C7.95295 15.5052 12 11.4147 12 6.26741C12 3.1337 10.125 0 6 0C1.875 0 0 3.1337 0 6.26741C0 11.4147 4.04705 15.5052 5.49359 16.8029C5.7866 17.0657 6.2134 17.0657 6.50641 16.8029ZM6 8.61768C7.42016 8.61768 8.57143 7.4602 8.57143 6.03238C8.57143 4.60455 7.42016 3.44707 6 3.44707C4.57984 3.44707 3.42857 4.60455 3.42857 6.03238C3.42857 7.4602 4.57984 8.61768 6 8.61768Z" fill="#BEBEBE"/>
</svg>
