<svg width="20" height="20" viewBox="0 0 20 20" fill="none" xmlns="http://www.w3.org/2000/svg">
<path d="M14.7916 3.40801L12.6833 5.02467L13.4416 7.57468L11.2499 6.06634L9.05827 7.57468L9.8166 5.02467L7.70827 3.40801L10.3666 3.33301L11.2499 0.833008L12.1333 3.33301L14.7916 3.40801ZM17.7083 9.16634L16.3416 10.208L16.8333 11.858L15.4166 10.883L13.9999 11.858L14.4916 10.208L13.1249 9.16634L14.8416 9.12467L15.4166 7.49967L15.9916 9.12467L17.7083 9.16634ZM15.8083 13.2913C16.4999 13.2247 17.2416 14.208 16.7999 14.833C16.5333 15.208 16.2499 15.558 15.8999 15.8913C12.6416 19.1663 7.3666 19.1663 4.1166 15.8913C0.858268 12.6413 0.858268 7.35801 4.1166 4.10801C4.44993 3.77467 4.79993 3.47467 5.17493 3.20801C5.79993 2.76634 6.78327 3.50801 6.7166 4.19967C6.4916 6.58301 7.2916 9.05801 9.12493 10.883C9.99127 11.754 11.0402 12.4219 12.1959 12.8383C13.3517 13.2548 14.5855 13.4095 15.8083 13.2913ZM14.4416 14.9747C11.9952 14.834 9.68411 13.8059 7.9416 12.083C6.13327 10.258 5.1666 7.91634 5.03327 5.56634C2.6916 8.18301 2.78327 12.1997 5.2916 14.7163C7.80827 17.2247 11.8249 17.3163 14.4416 14.9747Z" fill="#258FDA"/>
</svg>
