<svg width="22" height="22" viewBox="0 0 22 22" fill="none" xmlns="http://www.w3.org/2000/svg">
<path d="M19.416 14.6007C19.416 17.5797 17.7264 19.2614 14.7474 19.2702L6.56638 19.2702C3.58828 19.2702 1.89777 17.5797 1.89777 14.6007L1.89777 6.42056C1.89777 3.44159 3.58828 1.75195 6.56638 1.75195L14.7474 1.75195C17.7264 1.75195 19.416 3.44159 19.416 6.42057L19.416 14.6007ZM15.7985 10.949C15.9474 10.7029 15.9474 10.4051 15.7985 10.1695C15.6505 9.9321 15.3781 9.80159 15.1065 9.82699L6.18098 9.82699C5.80434 9.87166 5.52405 10.1861 5.52405 10.554C5.52405 10.9315 5.80434 11.246 6.18098 11.281L15.1065 11.281C15.3781 11.316 15.6505 11.1855 15.7985 10.949ZM12.9255 6.85852C13.0744 6.62203 13.0744 6.32334 12.9255 6.08772C12.7766 5.85035 12.5059 5.71984 12.2335 5.74611L6.18098 5.74611C5.80434 5.78027 5.52405 6.0956 5.52405 6.47224C5.52405 6.84976 5.80434 7.16421 6.18098 7.19925L12.2335 7.19925C12.5059 7.2264 12.7766 7.09414 12.9255 6.85852ZM9.74594 14.9686C9.89485 14.733 9.89485 14.4352 9.74594 14.1899C9.59704 13.9525 9.33514 13.822 9.05397 13.8571L6.18098 13.8571C5.80434 13.8921 5.52405 14.2066 5.52405 14.5841C5.52405 14.952 5.80434 15.2664 6.18098 15.3111L9.05397 15.3111C9.33514 15.3365 9.59704 15.206 9.74594 14.9686Z" fill="#258FDA"/>
</svg>
