<svg width="22" height="22" viewBox="0 0 22 22" fill="none" xmlns="http://www.w3.org/2000/svg">
<g clip-path="url(#clip0_16_4766)">
<path d="M20.2705 15.4913C20.2705 18.4703 18.5809 20.1521 15.6019 20.1608L7.42087 20.1608C4.44277 20.1608 2.75226 18.4703 2.75226 15.4913L2.75226 7.31119C2.75226 4.33221 4.44277 2.64258 7.42087 2.64258L15.6019 2.64258C18.5809 2.64258 20.2705 4.33221 20.2705 7.31119L20.2705 15.4913ZM16.653 11.8397C16.8019 11.5935 16.8019 11.2957 16.653 11.0601C16.505 10.8227 16.2326 10.6922 15.961 10.7176L7.03547 10.7176C6.65883 10.7623 6.37854 11.0767 6.37854 11.4446C6.37854 11.8221 6.65883 12.1366 7.03547 12.1716L15.961 12.1716C16.2326 12.2067 16.505 12.0762 16.653 11.8397ZM13.78 7.74915C13.9289 7.51265 13.9289 7.21396 13.78 6.97834C13.6311 6.74097 13.3604 6.61046 13.088 6.63674L7.03547 6.63674C6.65883 6.6709 6.37854 6.98623 6.37854 7.36287C6.37854 7.74039 6.65883 8.05484 7.03547 8.08988L13.088 8.08988C13.3604 8.11703 13.6311 7.98477 13.78 7.74915ZM10.6004 15.8592C10.7493 15.6236 10.7493 15.3258 10.6004 15.0805C10.4515 14.8432 10.1896 14.7126 9.90846 14.7477L7.03547 14.7477C6.65883 14.7827 6.37854 15.0972 6.37854 15.4747C6.37854 15.8426 6.65883 16.157 7.03547 16.2017L9.90846 16.2017C10.1896 16.2271 10.4515 16.0966 10.6004 15.8592Z" fill="#DFDFDF"/>
</g>
<defs>
<clipPath id="clip0_16_4766">
<rect width="21.0219" height="21.0219" fill="white" transform="translate(0.854492 0.890625)"/>
</clipPath>
</defs>
</svg>
