<svg width="38" height="29" viewBox="0 0 38 29" fill="none" xmlns="http://www.w3.org/2000/svg">
<path d="M19.1063 0.75C11.6594 0.75 5.56738 6.84197 5.56738 14.289C5.56738 21.736 11.6594 27.8279 19.1063 27.8279C26.5533 27.8279 32.6453 21.736 32.6453 14.289C32.6453 6.84205 26.5533 0.75 19.1063 0.75ZM19.1063 26.1199C12.5999 26.1199 7.27543 20.7954 7.27543 14.289C7.27543 7.78252 12.5999 2.45811 19.1063 2.45811C25.6128 2.45811 30.9373 7.78259 30.9373 14.289C30.9373 20.7955 25.6127 26.1199 19.1063 26.1199Z" fill="#258FDA" stroke="#258FDA" stroke-width="0.5"/>
<path d="M6.12374 1.30618L6.12372 1.3062C-1.04124 8.47116 -1.04124 20.1063 6.12372 27.2712C6.19888 27.3464 6.28397 27.4127 6.38772 27.4588C6.49255 27.5054 6.60353 27.5257 6.7233 27.5257C6.84306 27.5257 6.95406 27.5054 7.0589 27.4588C7.16266 27.4127 7.24777 27.3464 7.32294 27.2712C7.66212 26.9319 7.66207 26.4113 7.32291 26.072L7.32288 26.072C0.836452 19.5856 0.836452 8.99188 7.32295 2.50544L7.14618 2.32867L7.32296 2.50544C7.6622 2.1662 7.66216 1.64551 7.32298 1.30623C6.9837 0.96685 6.46298 0.967035 6.12374 1.30618Z" fill="#258FDA" stroke="#258FDA" stroke-width="0.5"/>
<path d="M30.8897 2.50637L30.8897 2.50639C37.3761 8.99283 37.3761 19.5866 30.8897 26.073C30.5505 26.4123 30.5505 26.9329 30.8897 27.2722L30.8897 27.2722C30.9649 27.3474 31.05 27.4137 31.1537 27.4598C31.2585 27.5064 31.3695 27.5267 31.4893 27.5267C31.609 27.5267 31.72 27.5064 31.8249 27.4598C31.9286 27.4137 32.0138 27.3474 32.0889 27.2722C39.2539 20.1072 39.2539 8.47209 32.0889 1.30715C31.7497 0.967914 31.229 0.967951 30.8897 1.30713C30.5503 1.64641 30.5505 2.16713 30.8897 2.50637ZM31.0663 2.32983L31.0665 2.32963L31.0663 2.32983Z" fill="#258FDA" stroke="#258FDA" stroke-width="0.5"/>
<path d="M20.3142 7.39453H16.69C16.4519 7.39453 16.2342 7.47495 16.0753 7.63386C15.9164 7.79276 15.8359 8.01053 15.8359 8.24855V15.4971V21.5375C15.8359 21.7755 15.9164 21.9933 16.0753 22.1522C16.2342 22.3111 16.4519 22.3915 16.69 22.3915C16.928 22.3915 17.1458 22.3111 17.3047 22.1522C17.4636 21.9933 17.544 21.7755 17.544 21.5375V16.3511H20.3142C22.8081 16.3511 24.7925 14.3667 24.7925 11.8728C24.7926 9.37897 22.8081 7.39453 20.3142 7.39453ZM20.3142 14.6431H17.544V9.10264H20.3142C21.8675 9.10264 23.0845 10.3196 23.0845 11.8729C23.0845 13.4261 21.8675 14.6431 20.3142 14.6431Z" fill="#258FDA" stroke="#258FDA" stroke-width="0.5"/>
</svg>
