<svg width="16" height="16" viewBox="0 0 16 16" fill="none" xmlns="http://www.w3.org/2000/svg">
<path d="M11.5504 9.3241C11.3835 9.48589 11.3067 9.71987 11.3448 9.94935L11.9178 13.1207C11.9662 13.3895 11.8527 13.6615 11.6278 13.8169C11.4073 13.978 11.114 13.9974 10.8736 13.8684L8.01871 12.3794C7.91945 12.3266 7.80922 12.2982 7.69642 12.295H7.52174C7.46115 12.304 7.40184 12.3234 7.3477 12.353L4.49218 13.8491C4.35101 13.92 4.19116 13.9451 4.03452 13.92C3.65293 13.8478 3.39831 13.4843 3.46084 13.1007L4.03452 9.92936C4.07255 9.69796 3.99585 9.46268 3.8289 9.29831L1.5013 7.04226C1.30663 6.85339 1.23895 6.56978 1.3279 6.31388C1.41428 6.05862 1.63473 5.87233 1.90094 5.83044L5.10454 5.36569C5.34819 5.34055 5.56219 5.19229 5.67177 4.97313L7.08342 2.07894C7.11694 2.01448 7.16012 1.95518 7.21233 1.9049L7.27035 1.85978C7.30064 1.82626 7.33545 1.79854 7.37413 1.77598L7.44439 1.7502L7.55397 1.70508H7.82534C8.0677 1.73022 8.28106 1.87525 8.39257 2.09183L9.82291 4.97313C9.92604 5.18391 10.1265 5.33024 10.3579 5.36569L13.5615 5.83044C13.8322 5.86911 14.0585 6.05604 14.1481 6.31388C14.2325 6.57235 14.1597 6.85597 13.9612 7.04226L11.5504 9.3241Z" fill="#F39D13"/>
</svg>
