<svg width="33" height="33" viewBox="0 0 33 33" fill="none" xmlns="http://www.w3.org/2000/svg">
<path d="M27.8438 0H5.15625C2.30853 0 0 2.30853 0 5.15625V27.8438C0 30.6915 2.30853 33 5.15625 33H27.8438C30.6915 33 33 30.6915 33 27.8438V5.15625C33 2.30853 30.6915 0 27.8438 0Z" fill="#25D366"/>
<path fill-rule="evenodd" clip-rule="evenodd" d="M22.275 10.6219C20.7281 9.075 18.6656 8.25 16.5 8.25C11.9625 8.25 8.25 11.9625 8.25 16.5C8.25 17.9437 8.66251 19.3875 9.38438 20.625L8.25 24.75L12.5813 23.6156C13.8188 24.2344 15.1594 24.6469 16.5 24.6469C21.0375 24.6469 24.75 20.9344 24.75 16.3969C24.75 14.2312 23.8219 12.1688 22.275 10.6219ZM16.5 23.3063C15.2625 23.3063 14.025 22.9969 12.9938 22.3781L12.7875 22.275L10.2094 22.9969L10.9313 20.5219L10.725 20.2125C10.0031 19.0781 9.69374 17.8406 9.69374 16.6031C9.69374 12.8906 12.7875 9.79688 16.5 9.79688C18.3562 9.79688 20.0063 10.5187 21.3469 11.7562C22.6875 13.0969 23.3063 14.7469 23.3063 16.6031C23.3063 20.2125 20.3156 23.3063 16.5 23.3063ZM20.2125 18.15C20.0063 18.0469 18.975 17.5312 18.7688 17.5312C18.5625 17.4281 18.4594 17.4281 18.3562 17.6344C18.2531 17.8406 17.8406 18.2531 17.7375 18.4594C17.6344 18.5625 17.5312 18.5625 17.325 18.5625C17.1187 18.4594 16.5 18.2531 15.675 17.5312C15.0563 17.0156 14.6438 16.2938 14.5406 16.0875C14.4375 15.8813 14.5406 15.7781 14.6438 15.675C14.7469 15.5719 14.85 15.4687 14.9531 15.3656C15.0563 15.2625 15.0563 15.1594 15.1594 15.0563C15.2625 14.9531 15.1594 14.85 15.1594 14.7469C15.1594 14.6438 14.7469 13.6125 14.5406 13.2C14.4375 12.8906 14.2313 12.8906 14.1281 12.8906C14.025 12.8906 13.9219 12.8906 13.7156 12.8906C13.6125 12.8906 13.4062 12.8906 13.2 13.0969C12.9937 13.3031 12.4781 13.8187 12.4781 14.85C12.4781 15.8812 13.2 16.8094 13.3031 17.0156C13.4062 17.1188 14.7469 19.2844 16.8094 20.1094C18.5625 20.8312 18.8719 20.625 19.2844 20.625C19.6969 20.625 20.5219 20.1094 20.625 19.6969C20.8313 19.1813 20.8313 18.7688 20.7281 18.7688C20.625 18.2531 20.4188 18.2531 20.2125 18.15Z" fill="white"/>
</svg>
