<svg width="32" height="32" viewBox="0 0 32 32" fill="none" xmlns="http://www.w3.org/2000/svg">
<path d="M16 28C17.1046 28 18 27.1046 18 26C18 24.8954 17.1046 24 16 24C14.8954 24 14 24.8954 14 26C14 27.1046 14.8954 28 16 28Z" fill="#258FDA"/>
<path d="M6.6665 16.7331C9.30192 14.538 12.6233 13.3359 16.0532 13.3359C19.483 13.3359 22.8044 14.538 25.4398 16.7331" stroke="#258FDA" stroke-width="2.3" stroke-linecap="round" stroke-linejoin="round"/>
<path d="M1.89355 11.9997C5.79012 8.56501 10.8059 6.66992 16.0002 6.66992C21.1945 6.66992 26.2103 8.56501 30.1069 11.9997" stroke="#258FDA" stroke-width="2.3" stroke-linecap="round" stroke-linejoin="round"/>
<path d="M11.3735 21.4803C12.7271 20.5186 14.3464 20.002 16.0069 20.002C17.6673 20.002 19.2866 20.5186 20.6402 21.4803" stroke="#258FDA" stroke-width="2.3" stroke-linecap="round" stroke-linejoin="round"/>
</svg>
